<?xml version="1.0" encoding="UTF-8"?>
<svg id="_レイヤー_1" data-name="レイヤー 1" xmlns="http://www.w3.org/2000/svg" viewBox="0 0 1024 1024" preserveAspectRatio="xMidYMid meet">
  <defs>
    <style>
      .cls-1 {
        fill: #fff;
      }

      .cls-2 {
        fill: #0bb879;
      }

      .cls-3 {
        fill: #38bdf8;
      }
    </style>
  </defs>
  <path class="cls-1" d="M588.638,1024h-96.369c43.415-52.542,63.932-120.903,60.515-190.279-8.391,47.522-27.735,91.677-57.964,129.578-14.493,18.172-30.452,33.694-50.756,45.602,3.999-7.659,9.455-13.348,12.079-23.193l-52.474,35.584c-1.283.87-2.044,1.692-2.397,2.708H19.227v-170.273c76.113-15.212,165.941-52.838,226.441-102.959-5.733-.732-10.008,1.302-14.898,2.502-14.829,3.638-29.425,4.658-44.718,2.829.369-2.28,2.7-1.144,4.38-2.034,27.695-14.654,53.405-32.019,76.558-54.441-13.344-5.002-24.761-9.428-35.896-15.873,8.958-3.969,35.4-.551,36.924-14.851,8.673,7.558,20.238,6.515,28.549,11.045,15.132,8.247,28.942,15.622,47.173,14.352,15.829-1.103,31.83-2.766,46.622-9.255l-28.417-3.035c-12.683-1.355-24.019-5.935-35.84-12.469,14.071-3.272,30.287-6.78,41.834-19.228-26.466,5.862-50.263,6.258-74.55-1.63l-20.72-6.73c2.655,7.948,8.764,12.293,15.359,18.078-29.555-5.586-57.287-19.321-78.718-41.213-3.242-3.312-6.024-6.59-7.905-10.57-2.405-5.088-.553-10.151,4.501-12.537l66.802-31.535c34.625-16.345,67.49-33.933,99.741-54.19,22.458-33.216,51.118-60.517,85.988-79.576,17.867-9.766,36.957-12.388,56.534-16.735,22.609-5.02,58.633-48.105,76.734-65.741,12.95-12.617,25.322-24.438,39.816-36.117,13.738,4.364,33.444,22.77,28.315,38.8,21.509,15.63,16.938,47.272,8.496,68.419l-17.253,43.22c12.784-6.54,23.162-15.5,34.326-24.128,9.594-7.416,17.315-16.282,25.346-24.885,2.821,1.121,5.4,2.929,7.092,5.841,13.716,23.603,12.825,46.491-4.359,68.119l-26.159,32.924c-48.773,61.385-38.295,130.852-16.298,200.236,3.216,10.143,6.543,19.644,6.643,30.846-13.286-13.286-28.108-31.398-45.945-39.086,8.817,14.437,16.736,27.591,21.702,43.315,9.688,30.677,16.737,74.83,8.5,106.328-3.822-17.969-10.166-35.829-20.424-52.013-6.848-10.804-12.485-22.195-23.206-31.041,20.744,64.222,18.711,115.841,5.775,180.197-3.598-7.312-3.38-14.126-8.058-21.21-5.153,30.517-14.763,58.774-27.374,86.306ZM486.607,465.964c5.637-3.635,10.914-7.555,11.551-15.054-22.599,1.083-42.03,16.832-43.722,39.77,10.421-9.89,20.548-17.222,32.171-24.717ZM381.855,995.37c16.945-4.516,30.879-11.128,44.994-18.68,13.955-8.549,26.853-17.616,37.032-30.675,15.405-19.763,25.203-43.718,26.023-70.128l-24.233,44.589c-10.645,19.586-26.799,34.436-45.633,46.634-9.153,7.479-34.333,17.637-38.182,28.259Z"/>
  <g>
    <path class="cls-2" d="M854.695,113.421c-6.771-23.559-14.322-31.783-37.485-40.007,24.803-9.257,28.752-15.676,37.908-39.153,4.328,21.312,17.955,34.801,38.827,39.015-11.291,3.392-20.934,7.005-27.927,15.499-5.906,7.099-8.424,15.385-11.324,24.646Z"/>
    <path class="cls-2" d="M394.536,148.642c-37.08,9.538-46.487,24.781-58.354,58.752-11.048-35.331-21.681-47.829-56.978-58.912,35.567-12.354,47.005-24.683,56.937-59.519,12.212,36.66,21.565,47.22,58.395,59.679Z"/>
    <path class="cls-3" d="M393.723,279.263c-3.762-9.132-5.239-17.325-11.228-24.163-6.988-8.939-17.272-13.185-28.013-16.342,23.149-7.02,32.668-17.404,38.488-40.245l4.857,13.594c6.004,14.415,18.382,22.564,34.53,26.468-21.438,5.228-35.439,19.014-38.634,40.687Z"/>
    <g id="_あ" data-name="あ">
      <path class="cls-3" d="M813.465,373.484c-18.012,16.028-37.213,29.369-58.892,39.002-.653.29-4.352.088-3.793-.636l1.866-2.416c9.046-11.71,8.13-29.181,7.022-44.574-31.699-5.349-57.812-14.968-72.317-44.767-13.86-28.472-14.106-67.425-11.578-98.721,2.501-30.955,12.981-57.782,42.935-70.435,25.834-10.912,68.416-13.773,96.628-13.829l79.74-.158c17.112-.034,33.346,1.397,50.103,3.958,28.844,4.408,53.615,14.401,66.294,42.243,14.622,32.11,14.924,81.35,8.638,115.727-2.819,15.412-8.27,29.791-18.678,41.338-22.243,24.677-65.913,27.15-97.281,28.826-27.51,1.47-54.261.857-81.8.817-3.736-.005-5.861.933-8.886,3.625ZM853.362,302.497c3.622,6.777,5.815,12.053,8.352,18.568,30.448-3.693,60.619-18.721,58.78-53.202-2.117-39.692-44.086-50.74-78.022-45.659-.524-3.556-.616-7.364.023-11.049,21.835-.081,42.326-1.341,63.59-3.734-.783-7.658-.937-13.508-3.003-20.578-20.363,4.254-40.07,4.569-60.231,5.091.292-8.757-.822-11.496,2.956-19.212-8.232-1.515-16.12-1.372-25.285-1.963l-.267,21.331-36.806-.603c-.658,6.875-.759,12.971-.224,19.993l36.596.579c.506,5.742.562,10.582-.047,16.006-24.723,10.497-48.398,31.808-44.371,61.324,2.214,16.227,15.873,26.586,32.055,25.211,9.461-.804,17.527-4.885,25.789-9.488,5.072-2.826,12.344.329,17.177-3.314,2.17-1.636-.179-5.842-1.359-8.056,13.637-14.114,24.103-30.244,29.665-50.033,11.372,3.775,17.99,15.154,18.078,26.088.191,23.734-24.231,28.915-43.445,32.699Z"/>
      <g>
        <path class="cls-3" d="M823.503,287.037c-4.98,5.746-12.731,8.061-19.763,6.023-4.958-2.97-7.169-9.014-6.091-14.999,2.268-12.591,10.884-22.467,22.14-28.39.221,12.694,1.806,23.936,3.714,37.365Z"/>
        <path class="cls-3" d="M843.37,270.082c-1.947-9.668-1.429-18.584-1.523-28.564,5.585-1.772,11.183-2.349,17.148-1.329-3.59,11.348-7.694,21.155-15.625,29.893Z"/>
      </g>
    </g>
    <g id="A">
      <path class="cls-2" d="M556.267,226.329c-4.112-.182-6.825,1.023-9.807,3.398-18.052,14.377-36.659,27.102-56.208,38.906,3.291-15.751,5.168-31.848,3.179-48.186-19.617-3.412-36.295-11.772-48.566-26.478-25.203-32.111-23.66-98.434-15.142-135.558C439.566,15.513,477.508,4.187,516.496.208c30.087-3.071,59.348-2.867,89.705-2.943,35.578-.089,88.295-1.269,120.307,12.867,19.375,8.556,32.565,23.483,39.158,43.617,7.221,22.053,9.656,44.923,8.674,67.94-18.379,1.899-35.828,3.919-53.087,9.458-26.682,8.563-46.865,27.68-55.799,54.197-4.524,13.428-6.317,26.783-7.68,40.97-33.997,1.313-67.437,1.523-101.507.015ZM630.179,154.415c2.878,7.67,18.016,5.47,24.781,5.005,0-4.735-1.57-8.487-3.264-12.953l-40.174-105.878c-8.806-1.045-16.736-.53-25.774-.211l-29.01,74.768-16.658,44.24c8.951.612,15.862.52,23.747.142l10.527-27.12,47.566-.008,8.26,22.015Z"/>
      <path class="cls-2" d="M614.493,111.925l-32.881-.05,16.223-44.213c-1.887-2.983,2.572-3.06,1.043-.083l15.615,44.346Z"/>
    </g>
  </g>
</svg>