<?xml version="1.0" encoding="UTF-8"?>
<svg id="_レイヤー_1" data-name="レイヤー 1" xmlns="http://www.w3.org/2000/svg" viewBox="0 0 1024 1024">
  <path d="M818.713,1024h-138.561c62.423-75.547,91.923-173.838,87.009-273.588-12.064,68.329-39.878,131.816-83.342,186.31-20.839,26.128-43.785,48.446-72.978,65.568,5.75-11.012,13.594-19.193,17.368-33.348l-75.449,51.163c-1.845,1.251-2.94,2.432-3.446,3.894H0v-244.823c109.437-21.873,238.594-75.972,325.582-148.036-8.242-1.052-14.389,1.872-21.42,3.597-21.321,5.231-42.308,6.697-64.296,4.068.531-3.278,3.882-1.645,6.298-2.924,39.82-21.07,76.788-46.037,110.077-78.276-19.186-7.192-35.602-13.556-51.612-22.822,12.88-5.707,50.9-.792,53.09-21.353,12.47,10.867,29.098,9.367,41.049,15.88,21.757,11.858,41.613,22.462,67.826,20.636,22.759-1.586,45.766-3.977,67.034-13.307l-40.858-4.364c-18.236-1.948-34.535-8.534-51.531-17.928,20.231-4.705,43.547-9.749,60.15-27.647-38.053,8.429-72.27,8.999-107.189-2.343l-29.792-9.676c3.817,11.427,12.601,17.676,22.084,25.992-42.494-8.031-82.369-27.78-113.183-59.258-4.662-4.762-8.661-9.476-11.366-15.198-3.458-7.316-.795-14.596,6.471-18.026l96.049-45.342c49.784-23.502,97.038-48.79,143.41-77.916,32.29-47.759,73.499-87.012,123.635-114.416,25.69-14.042,53.137-17.811,81.287-24.062,32.507-7.218,84.303-69.167,110.33-94.525C841.744,33.79,859.533,16.793,880.373,0c19.753,6.274,48.087,32.739,40.712,55.788,30.925,22.474,24.353,67.969,12.216,98.375l-24.806,62.143c18.381-9.403,33.303-22.286,49.354-34.692,13.795-10.662,24.895-23.411,36.443-35.78,4.056,1.612,7.764,4.211,10.197,8.399,19.721,33.937,18.441,66.846-6.268,97.944l-37.613,47.339c-70.127,88.261-55.062,188.142-23.434,287.904,4.623,14.583,9.408,28.245,9.552,44.351-19.103-19.103-40.415-45.145-66.06-56.199,12.677,20.758,24.063,39.67,31.203,62.279,13.929,44.109,24.064,107.593,12.222,152.881-5.495-25.836-14.617-51.516-29.367-74.785-9.846-15.534-17.951-31.913-33.367-44.632,29.827,92.34,26.903,166.559,8.303,259.092-5.173-10.514-4.86-20.311-11.587-30.497-7.41,43.878-21.226,84.506-39.36,124.092ZM672.01,221.643c8.104-5.226,15.692-10.863,16.609-21.644-32.493,1.557-60.432,24.202-62.865,57.182,14.983-14.221,29.545-24.762,46.256-35.538ZM521.395,982.835c24.363-6.493,44.399-16.001,64.693-26.859,20.065-12.292,38.609-25.328,53.245-44.105,22.149-28.415,36.237-62.859,37.417-100.831l-34.843,64.112c-15.305,28.161-38.532,49.512-65.612,67.051-13.161,10.753-49.364,25.358-54.9,40.632Z"/>
</svg>