<?xml version="1.0" encoding="UTF-8"?>
<svg id="_レイヤー_1" data-name="レイヤー 1" xmlns="http://www.w3.org/2000/svg" viewBox="0 0 1024 1024">
  <defs>
    <style>
      .cls-1 {
        fill: #0bb879;
      }

      .cls-2 {
        fill: #fff;
      }

      .cls-3 {
        fill: #38bdf8;
      }
    </style>
  </defs>
  <path class="cls-2" d="M491.583,1024h-83.197c37.481-45.361,55.194-104.378,52.243-164.271-7.244,41.027-23.944,79.147-50.041,111.867-12.512,15.688-26.29,29.089-43.818,39.369,3.453-6.612,8.163-11.524,10.428-20.023l-45.302,30.72c-1.108.751-1.765,1.46-2.069,2.338H0v-147c65.709-13.133,143.26-45.616,195.491-88.886-4.949-.632-8.64,1.124-12.861,2.16-12.802,3.141-25.403,4.021-38.606,2.443.319-1.968,2.331-.988,3.782-1.756,23.909-12.651,46.106-27.642,66.094-47-11.52-4.318-21.377-8.139-30.99-13.703,7.733-3.427,30.562-.476,31.877-12.821,7.487,6.525,17.471,5.624,24.647,9.535,13.064,7.12,24.986,13.487,40.725,12.39,13.665-.952,27.48-2.388,40.25-7.99l-24.533-2.62c-10.95-1.17-20.736-5.124-30.941-10.764,12.147-2.825,26.147-5.854,36.116-16.6-22.848,5.061-43.393,5.403-64.36-1.407l-17.888-5.81c2.292,6.861,7.566,10.613,13.26,15.607-25.515-4.822-49.457-16.68-67.959-35.58-2.799-2.859-5.201-5.69-6.825-9.126-2.076-4.393-.477-8.764,3.886-10.823l57.671-27.225c29.892-14.111,58.265-29.295,86.108-46.784,19.388-28.676,44.131-52.245,74.235-68.699,15.425-8.431,31.905-10.695,48.807-14.447,19.518-4.334,50.619-41.53,66.246-56.756,11.18-10.892,21.861-21.098,34.374-31.181,11.86,3.767,28.873,19.658,24.445,33.497,18.569,13.494,14.622,40.811,7.335,59.067l-14.895,37.313c11.037-5.646,19.996-13.381,29.634-20.831,8.283-6.402,14.948-14.057,21.882-21.484,2.435.968,4.662,2.529,6.123,5.043,11.841,20.377,11.072,40.136-3.764,58.809l-22.584,28.424c-42.107,52.995-33.061,112.966-14.071,172.867,2.776,8.756,5.649,16.959,5.735,26.63-11.47-11.47-24.267-27.107-39.665-33.744,7.612,12.464,14.448,23.819,18.735,37.395,8.364,26.484,14.449,64.602,7.338,91.795-3.299-15.513-8.777-30.932-17.633-44.904-5.912-9.327-10.778-19.162-20.034-26.799,17.909,55.444,16.154,100.008,4.986,155.567-3.106-6.313-2.918-12.196-6.957-18.311-4.449,26.346-12.745,50.74-23.633,74.509ZM403.497,542.238c4.866-3.138,9.422-6.522,9.972-12.996-19.51.935-36.286,14.531-37.746,34.334,8.997-8.538,17.74-14.868,27.774-21.338ZM313.063,999.283c14.629-3.898,26.659-9.607,38.844-16.127,12.048-7.381,23.182-15.208,31.97-26.482,13.299-17.061,21.758-37.743,22.466-60.543l-20.921,38.495c-9.19,16.909-23.136,29.729-39.396,40.26-7.902,6.457-29.64,15.226-32.964,24.397Z"/>
  <g>
    <path class="cls-1" d="M751.463,283.154c-5.953-20.714-12.593-27.944-32.957-35.175,21.807-8.139,25.279-13.783,33.33-34.424,3.805,18.738,15.787,30.598,34.137,34.303-9.927,2.982-18.406,6.159-24.554,13.627-5.192,6.242-7.406,13.527-9.956,21.669Z"/>
    <path class="cls-1" d="M346.883,314.121c-32.601,8.386-40.872,21.788-51.306,51.656-9.714-31.064-19.062-42.052-50.096-51.797,31.271-10.862,41.328-21.702,50.06-52.33,10.737,32.232,18.96,41.517,51.342,52.471Z"/>
    <path class="cls-3" d="M346.168,428.965c-3.308-8.029-4.606-15.233-9.872-21.244-6.144-7.859-15.185-11.592-24.63-14.368,20.353-6.172,28.722-15.302,33.839-35.384l4.271,11.952c5.279,12.674,16.162,19.839,30.359,23.272-18.849,4.597-31.159,16.718-33.968,35.773Z"/>
    <g id="_あ" data-name="あ">
      <path class="cls-3" d="M715.213,511.806c-15.837,14.092-32.718,25.822-51.779,34.292-.574.255-3.826.077-3.335-.559l1.641-2.124c7.953-10.296,7.148-25.656,6.174-39.19-27.87-4.703-50.829-13.16-63.583-39.36-12.186-25.033-12.403-59.282-10.18-86.797,2.199-27.216,11.413-50.803,37.749-61.927,22.714-9.594,60.153-12.11,84.957-12.159l70.109-.139c15.045-.03,29.318,1.228,44.051,3.48,25.36,3.875,47.14,12.662,58.287,37.141,12.856,28.232,13.122,71.524,7.594,101.749-2.478,13.551-7.271,26.193-16.422,36.345-19.557,21.696-57.952,23.871-85.531,25.345-24.187,1.292-47.707.754-71.92.718-3.285-.005-5.153.82-7.813,3.187ZM750.29,449.393c3.184,5.958,5.113,10.598,7.343,16.326,26.77-3.247,53.297-16.46,51.68-46.776-1.861-34.898-38.762-44.611-68.599-40.145-.46-3.126-.541-6.475.02-9.714,19.198-.071,37.214-1.179,55.909-3.283-.689-6.733-.824-11.877-2.64-18.093-17.904,3.74-35.23,4.017-52.957,4.476.256-7.699-.723-10.108,2.599-16.891-7.238-1.332-14.173-1.206-22.231-1.726l-.235,18.755-32.361-.53c-.578,6.045-.668,11.404-.197,17.578l32.176.509c.445,5.049.494,9.304-.041,14.073-21.737,9.229-42.552,27.966-39.012,53.918,1.946,14.267,13.956,23.375,28.184,22.166,8.319-.707,15.41-4.295,22.674-8.342,4.46-2.484,10.853.289,15.102-2.914,1.908-1.438-.158-5.137-1.194-7.083,11.99-12.41,21.192-26.591,26.082-43.99,9.998,3.319,15.817,13.324,15.894,22.937.168,20.867-21.304,25.422-38.198,28.749Z"/>
      <g>
        <path class="cls-3" d="M724.038,435.8c-4.379,5.052-11.194,7.087-17.376,5.296-4.359-2.611-6.303-7.925-5.356-13.187,1.994-11.071,9.57-19.753,19.466-24.961.194,11.161,1.588,21.045,3.265,32.852Z"/>
        <path class="cls-3" d="M741.506,420.893c-1.712-8.5-1.256-16.34-1.339-25.114,4.911-1.558,9.832-2.065,15.077-1.168-3.156,9.977-6.764,18.6-13.738,26.283Z"/>
      </g>
    </g>
    <g id="A">
      <path class="cls-1" d="M489.08,382.425c-3.616-.16-6,.899-8.622,2.987-15.872,12.641-32.231,23.829-49.419,34.207,2.893-13.849,4.544-28.001,2.795-42.366-17.247-3-31.911-10.35-42.7-23.28-22.158-28.232-20.802-86.545-13.313-119.185,8.653-37.716,42.013-47.674,76.291-51.173,26.453-2.7,52.18-2.521,78.87-2.588,31.281-.078,77.631-1.116,105.776,11.313,17.035,7.523,28.631,20.647,34.428,38.349,6.349,19.389,8.489,39.497,7.626,59.734-16.159,1.669-31.5,3.446-46.675,8.316-23.46,7.529-41.205,24.337-49.059,47.651-3.978,11.807-5.554,23.548-6.753,36.022-29.891,1.155-59.292,1.339-89.246.013ZM554.065,319.197c2.53,6.744,15.84,4.809,21.788,4.4,0-4.163-1.38-7.462-2.87-11.388l-35.322-93.09c-7.743-.919-14.714-.466-22.661-.185l-25.506,65.737-14.646,38.896c7.87.538,13.946.457,20.879.125l9.255-23.845,41.821-.007,7.262,19.356Z"/>
      <path class="cls-1" d="M540.273,281.839l-28.909-.044,14.263-38.873c-1.659-2.623,2.261-2.69.917-.073l13.729,38.99Z"/>
    </g>
  </g>
</svg>